ibm2401
version=1
nRows=21
nColumns=19
inDegrees=yes
endheader
time	ground_force1_vx	ground_force1_vy	ground_force1_vz	ground_force1_px	ground_force1_py	ground_force1_pz	ground_torque1_x	ground_torque1_y	ground_torque1_z	ground_force2_vx	ground_force2_vy	ground_force2_vz	ground_force2_px	ground_force2_py	ground_force2_pz	ground_torque2_x	ground_torque2_y	ground_torque2_z
0.000000	32.183228	355.291748	1.000064	0.187482	0.000000	-0.057056	-0.000002	1.364006	0.000006	-23.609615	316.942749	1.077579	-0.175110	0.000000	-0.046039	0.000002	-2.540386	-0.000001	
0.001000	32.488403	362.615967	-0.830991	0.186725	0.000000	-0.058408	0.000001	1.431398	0.000004	-23.914791	318.163452	1.077579	-0.175013	0.000000	-0.047206	0.000002	-2.559585	-0.000002	
0.002000	31.572876	357.733154	0.084536	0.186203	0.000000	-0.058025	0.000005	1.281209	0.000000	-22.083736	316.332397	0.467228	-0.175158	0.000000	-0.046900	-0.000001	-2.484864	-0.000004	
0.003000	31.572876	357.122803	0.389712	0.186265	0.000000	-0.057271	-0.000001	1.110827	0.000004	-24.525143	318.163452	-1.974178	-0.176548	0.000000	-0.040300	-0.000001	-2.718476	-0.000002	
0.004000	32.183228	358.953857	0.084536	0.188460	0.000000	-0.056974	0.000001	1.492437	0.000006	-23.304440	316.942749	0.467228	-0.176265	0.000000	-0.043151	-0.000001	-2.667058	-0.000003	
0.005000	31.572876	359.564209	-0.830991	0.186697	0.000000	-0.057724	-0.000002	1.415808	0.000000	-22.694088	316.942749	-0.143124	-0.176265	0.000000	-0.043729	0.000001	-2.482692	-0.000003	
0.006000	31.878052	362.615967	0.084536	0.186389	0.000000	-0.059418	0.000003	1.371351	0.000001	-22.999264	317.553101	-1.058651	-0.175446	0.000000	-0.046335	0.000004	-2.676712	0.000000	
0.007000	32.183228	354.681396	0.389712	0.186858	0.000000	-0.055263	-0.000003	1.261727	0.000001	-23.304440	318.163452	0.772404	-0.176164	0.000000	-0.039724	0.000001	-2.647426	-0.000001	
0.008000	31.572876	358.343506	-0.830991	0.186822	0.000000	-0.056732	-0.000001	1.172582	0.000004	-22.999264	320.604858	-0.143124	-0.175965	0.000000	-0.044942	0.000005	-2.410868	-0.000001	
0.009000	32.488403	355.291748	0.084536	0.186452	0.000000	-0.057056	-0.000002	1.441727	0.000008	-23.304440	318.163452	-0.448300	-0.176164	0.000000	-0.042602	0.000000	-2.246095	-0.000001	
0.010000	31.267700	358.953857	1.915591	0.185740	0.000000	-0.056974	0.000001	0.747881	0.000006	-24.219967	318.163452	-0.143124	-0.175397	0.000000	-0.048357	-0.000003	-2.700479	0.000001	
0.011000	32.183228	359.564209	-2.356870	0.186697	0.000000	-0.057215	-0.000003	1.299763	0.000000	-23.304440	319.994507	-0.448300	-0.175252	0.000000	-0.048652	0.000005	-2.379338	-0.000002	
0.012000	31.572876	358.343506	-1.746518	0.186822	0.000000	-0.057754	0.000005	1.174027	0.000004	-23.304440	319.384155	-0.753475	-0.176064	0.000000	-0.051803	-0.000000	-2.405786	-0.000002	
0.013000	31.878052	360.174561	0.389712	0.187652	0.000000	-0.056439	0.000003	1.088529	0.000004	-24.219967	318.773804	-1.058651	-0.176497	0.000000	-0.040031	0.000003	-2.834992	-0.000004	
0.014000	32.793579	359.564209	1.305239	0.186697	0.000000	-0.056197	-0.000001	1.193758	0.000000	-23.914791	317.553101	-0.753475	-0.175062	0.000000	-0.042876	-0.000002	-2.525868	-0.000005	
0.015000	31.267700	358.343506	-2.051694	0.186482	0.000000	-0.056732	-0.000001	1.264968	0.000002	-25.135494	317.553101	-0.753475	-0.176215	0.000000	-0.045759	0.000004	-2.646071	-0.000002	
0.016000	32.488403	361.395264	-0.220640	0.187863	0.000000	-0.057933	-0.000004	1.058451	0.000005	-23.609615	321.215210	1.382755	-0.175916	0.000000	-0.044667	0.000001	-2.380906	-0.000001	
0.017000	31.267700	357.733154	0.694888	0.185520	0.000000	-0.056489	0.000003	1.173025	0.000003	-24.830318	319.384155	0.467228	-0.176447	0.000000	-0.045496	0.000002	-2.573406	0.000000	
0.018000	31.878052	356.512451	0.389712	0.187012	0.000000	-0.056001	0.000002	0.919610	0.000000	-23.304440	322.435913	-0.143124	-0.175818	0.000000	-0.048662	0.000006	-2.371475	-0.000003	
0.019000	32.488403	359.564209	-1.746518	0.186697	0.000000	-0.055178	0.000002	1.569917	0.000000	-23.914791	318.163452	0.772404	-0.176164	0.000000	-0.040300	-0.000001	-2.731488	-0.000001	
0.020000	31.878052	360.174561	-1.746518	0.186296	0.000000	-0.056439	0.000003	1.075042	0.000005	-24.525143	321.215210	1.077579	-0.175916	0.000000	-0.046377	-0.000001	-2.672191	-0.000001	
